<svg width="40" height="48" viewBox="0 0 40 48" fill="none" xmlns="http://www.w3.org/2000/svg">
<mask id="path-1-outside-1_1_6154" maskUnits="userSpaceOnUse" x="11" y="12.5" width="30" height="36" fill="black">
<rect fill="white" x="11" y="12.5" width="30" height="36"/>
<path d="M12.96 13.9H28.704V15.724C28.032 16.076 27.28 16.38 26.448 16.636C25.648 16.86 24.864 17.02 24.096 17.116V44.38H33.36L36.576 35.788H38.544C38.672 36.524 38.784 37.388 38.88 38.38C39.008 39.372 39.104 40.412 39.168 41.5C39.232 42.588 39.28 43.66 39.312 44.716C39.344 45.772 39.344 46.7 39.312 47.5H12.96V45.676C13.696 45.292 14.384 44.988 15.024 44.764C15.696 44.54 16.32 44.38 16.896 44.284V17.116C15.328 16.86 14.016 16.396 12.96 15.724V13.9Z"/>
</mask>
<path d="M12.96 13.9H28.704V15.724C28.032 16.076 27.28 16.38 26.448 16.636C25.648 16.86 24.864 17.02 24.096 17.116V44.38H33.36L36.576 35.788H38.544C38.672 36.524 38.784 37.388 38.88 38.38C39.008 39.372 39.104 40.412 39.168 41.5C39.232 42.588 39.28 43.66 39.312 44.716C39.344 45.772 39.344 46.7 39.312 47.5H12.96V45.676C13.696 45.292 14.384 44.988 15.024 44.764C15.696 44.54 16.32 44.38 16.896 44.284V17.116C15.328 16.86 14.016 16.396 12.96 15.724V13.9Z" fill="#33DFBF" fill-opacity="0.8"/>
<path d="M12.96 13.9V12.9H11.96V13.9H12.96ZM28.704 13.9H29.704V12.9H28.704V13.9ZM28.704 15.724L29.168 16.6098L29.704 16.3291V15.724H28.704ZM26.448 16.636L26.7176 17.599L26.7299 17.5955L26.7421 17.5918L26.448 16.636ZM24.096 17.116L23.972 16.1237L23.096 16.2332V17.116H24.096ZM24.096 44.38H23.096V45.38H24.096V44.38ZM33.36 44.38V45.38H34.0535L34.2965 44.7305L33.36 44.38ZM36.576 35.788V34.788H35.8825L35.6395 35.4374L36.576 35.788ZM38.544 35.788L39.5292 35.6167L39.3851 34.788H38.544V35.788ZM38.88 38.38L37.8846 38.4763L37.8862 38.4922L37.8882 38.508L38.88 38.38ZM39.168 41.5L40.1663 41.4413V41.4413L39.168 41.5ZM39.312 44.716L38.3125 44.7463V44.7463L39.312 44.716ZM39.312 47.5V48.5H40.2728L40.3112 47.54L39.312 47.5ZM12.96 47.5H11.96V48.5H12.96V47.5ZM12.96 45.676L12.4974 44.7894L11.96 45.0698V45.676H12.96ZM15.024 44.764L14.7078 43.8153L14.7007 43.8177L14.6936 43.8201L15.024 44.764ZM16.896 44.284L17.0604 45.2704L17.896 45.1311V44.284H16.896ZM16.896 17.116H17.896V16.266L17.0571 16.1291L16.896 17.116ZM12.96 15.724H11.96V16.2729L12.4231 16.5677L12.96 15.724ZM12.96 14.9H28.704V12.9H12.96V14.9ZM27.704 13.9V15.724H29.704V13.9H27.704ZM28.24 14.8382C27.6296 15.1579 26.9356 15.4397 26.1539 15.6802L26.7421 17.5918C27.6244 17.3203 28.4344 16.9941 29.168 16.6098L28.24 14.8382ZM26.1784 15.673C25.4227 15.8846 24.6873 16.0343 23.972 16.1237L24.22 18.1083C25.0407 18.0057 25.8733 17.8354 26.7176 17.599L26.1784 15.673ZM23.096 17.116V44.38H25.096V17.116H23.096ZM24.096 45.38H33.36V43.38H24.096V45.38ZM34.2965 44.7305L37.5125 36.1385L35.6395 35.4374L32.4235 44.0294L34.2965 44.7305ZM36.576 36.788H38.544V34.788H36.576V36.788ZM37.5588 35.9593C37.6813 36.6639 37.7903 37.5017 37.8846 38.4763L39.8754 38.2837C39.7777 37.2743 39.6627 36.3841 39.5292 35.6167L37.5588 35.9593ZM37.8882 38.508C38.013 39.475 38.107 40.4918 38.1697 41.5587L40.1663 41.4413C40.101 40.3322 40.003 39.269 39.8718 38.252L37.8882 38.508ZM38.1697 41.5587C38.2332 42.6375 38.2808 43.7001 38.3125 44.7463L40.3115 44.6857C40.2792 43.6199 40.2308 42.5385 40.1663 41.4413L38.1697 41.5587ZM38.3125 44.7463C38.344 45.7858 38.3436 46.6894 38.3128 47.46L40.3112 47.54C40.3444 46.7105 40.344 45.7582 40.3115 44.6857L38.3125 44.7463ZM39.312 46.5H12.96V48.5H39.312V46.5ZM13.96 47.5V45.676H11.96V47.5H13.96ZM13.4226 46.5626C14.125 46.1961 14.7685 45.9129 15.3544 45.7079L14.6936 43.8201C13.9995 44.0631 13.267 44.3879 12.4974 44.7894L13.4226 46.5626ZM15.3402 45.7127C15.9727 45.5019 16.5454 45.3562 17.0604 45.2704L16.7316 43.2976C16.0946 43.4038 15.4193 43.5781 14.7078 43.8153L15.3402 45.7127ZM17.896 44.284V17.116H15.896V44.284H17.896ZM17.0571 16.1291C15.5881 15.8892 14.4123 15.4629 13.4969 14.8803L12.4231 16.5677C13.6197 17.3291 15.0679 17.8308 16.7349 18.1029L17.0571 16.1291ZM13.96 15.724V13.9H11.96V15.724H13.96Z" fill="black" fill-opacity="0.04" mask="url(#path-1-outside-1_1_6154)"/>
<mask id="path-3-outside-2_1_6154" maskUnits="userSpaceOnUse" x="0" y="-1.5" width="26" height="38" fill="black">
<rect fill="white" y="-1.5" width="26" height="38"/>
<path d="M7.536 30.516C7.888 30.868 8.384 31.204 9.024 31.524C9.664 31.812 10.512 31.956 11.568 31.956C13.328 31.956 14.784 31.508 15.936 30.612C17.12 29.684 17.712 28.404 17.712 26.772C17.712 25.588 17.328 24.596 16.56 23.796C15.824 22.996 14.88 22.26 13.728 21.588C12.576 20.916 11.344 20.26 10.032 19.62C8.72 18.948 7.488 18.164 6.336 17.268C5.184 16.372 4.224 15.316 3.456 14.1C2.72 12.852 2.352 11.316 2.352 9.492C2.352 7.924 2.64 6.564 3.216 5.412C3.792 4.26 4.576 3.316 5.568 2.58C6.592 1.812 7.792 1.252 9.168 0.899998C10.544 0.515999 12.032 0.323999 13.632 0.323999C15.584 0.323999 17.392 0.467999 19.056 0.756C20.752 1.012 22.272 1.428 23.616 2.004C23.584 2.644 23.52 3.38 23.424 4.212C23.36 5.044 23.264 5.876 23.136 6.708C23.008 7.508 22.864 8.276 22.704 9.012C22.576 9.716 22.448 10.308 22.32 10.788H20.352L18.144 4.212C17.76 4.02 17.184 3.844 16.416 3.684C15.68 3.524 14.912 3.444 14.112 3.444C12.768 3.444 11.632 3.796 10.704 4.5C9.776 5.204 9.312 6.228 9.312 7.572C9.312 8.788 9.696 9.828 10.464 10.692C11.232 11.524 12.192 12.292 13.344 12.996C14.496 13.7 15.744 14.404 17.088 15.108C18.464 15.78 19.728 16.564 20.88 17.46C22.032 18.356 22.992 19.412 23.76 20.628C24.528 21.812 24.912 23.284 24.912 25.044C24.912 28.244 23.824 30.724 21.648 32.484C19.504 34.212 16.336 35.076 12.144 35.076C11.12 35.076 10.08 35.012 9.024 34.884C8 34.756 7.024 34.58 6.096 34.356C5.168 34.132 4.336 33.892 3.6 33.636C2.896 33.38 2.368 33.108 2.016 32.82C2.048 32.084 2.128 31.3 2.256 30.468C2.384 29.604 2.512 28.756 2.64 27.924C2.8 27.06 2.96 26.244 3.12 25.476C3.28 24.708 3.44 24.036 3.6 23.46H5.568L7.536 30.516Z"/>
</mask>
<path d="M7.536 30.516C7.888 30.868 8.384 31.204 9.024 31.524C9.664 31.812 10.512 31.956 11.568 31.956C13.328 31.956 14.784 31.508 15.936 30.612C17.12 29.684 17.712 28.404 17.712 26.772C17.712 25.588 17.328 24.596 16.56 23.796C15.824 22.996 14.88 22.26 13.728 21.588C12.576 20.916 11.344 20.26 10.032 19.62C8.72 18.948 7.488 18.164 6.336 17.268C5.184 16.372 4.224 15.316 3.456 14.1C2.72 12.852 2.352 11.316 2.352 9.492C2.352 7.924 2.64 6.564 3.216 5.412C3.792 4.26 4.576 3.316 5.568 2.58C6.592 1.812 7.792 1.252 9.168 0.899998C10.544 0.515999 12.032 0.323999 13.632 0.323999C15.584 0.323999 17.392 0.467999 19.056 0.756C20.752 1.012 22.272 1.428 23.616 2.004C23.584 2.644 23.52 3.38 23.424 4.212C23.36 5.044 23.264 5.876 23.136 6.708C23.008 7.508 22.864 8.276 22.704 9.012C22.576 9.716 22.448 10.308 22.32 10.788H20.352L18.144 4.212C17.76 4.02 17.184 3.844 16.416 3.684C15.68 3.524 14.912 3.444 14.112 3.444C12.768 3.444 11.632 3.796 10.704 4.5C9.776 5.204 9.312 6.228 9.312 7.572C9.312 8.788 9.696 9.828 10.464 10.692C11.232 11.524 12.192 12.292 13.344 12.996C14.496 13.7 15.744 14.404 17.088 15.108C18.464 15.78 19.728 16.564 20.88 17.46C22.032 18.356 22.992 19.412 23.76 20.628C24.528 21.812 24.912 23.284 24.912 25.044C24.912 28.244 23.824 30.724 21.648 32.484C19.504 34.212 16.336 35.076 12.144 35.076C11.12 35.076 10.08 35.012 9.024 34.884C8 34.756 7.024 34.58 6.096 34.356C5.168 34.132 4.336 33.892 3.6 33.636C2.896 33.38 2.368 33.108 2.016 32.82C2.048 32.084 2.128 31.3 2.256 30.468C2.384 29.604 2.512 28.756 2.64 27.924C2.8 27.06 2.96 26.244 3.12 25.476C3.28 24.708 3.44 24.036 3.6 23.46H5.568L7.536 30.516Z" fill="#33DFBF"/>
<path d="M7.536 30.516L6.57276 30.7847L6.64328 31.0375L6.82889 31.2231L7.536 30.516ZM9.024 31.524L8.57679 32.4184L8.59503 32.4275L8.61364 32.4359L9.024 31.524ZM15.936 30.612L16.5499 31.4014L16.5529 31.3991L15.936 30.612ZM16.56 23.796L15.8241 24.4731L15.8313 24.4809L15.8386 24.4885L16.56 23.796ZM13.728 21.588L14.2319 20.7242L13.728 21.588ZM10.032 19.62L9.57612 20.51L9.58481 20.5145L9.59358 20.5188L10.032 19.62ZM6.336 17.268L5.72206 18.0574H5.72206L6.336 17.268ZM3.456 14.1L2.59463 14.608L2.60237 14.6211L2.61051 14.634L3.456 14.1ZM3.216 5.412L4.11043 5.85921L4.11043 5.85921L3.216 5.412ZM5.568 2.58L6.16386 3.38311L6.168 3.38L5.568 2.58ZM9.168 0.899998L9.41583 1.8688L9.42635 1.86611L9.4368 1.86319L9.168 0.899998ZM19.056 0.756L18.8855 1.74135L18.8961 1.74319L18.9067 1.7448L19.056 0.756ZM23.616 2.004L24.6148 2.05393L24.6495 1.35896L24.0099 1.08485L23.616 2.004ZM23.424 4.212L22.4306 4.09737L22.4284 4.1163L22.4269 4.1353L23.424 4.212ZM23.136 6.708L24.1235 6.86599L24.1244 6.86005L23.136 6.708ZM22.704 9.012L21.7268 8.79957L21.7232 8.81628L21.7201 8.83311L22.704 9.012ZM22.32 10.788V11.788H23.0883L23.2862 11.0457L22.32 10.788ZM20.352 10.788L19.404 11.1063L19.6329 11.788H20.352V10.788ZM18.144 4.212L19.092 3.8937L18.9606 3.50224L18.5912 3.31757L18.144 4.212ZM16.416 3.684L16.2036 4.66121L16.212 4.66298L16.416 3.684ZM10.704 4.5L11.3084 5.29669L11.3084 5.29669L10.704 4.5ZM10.464 10.692L9.71659 11.3564L9.72283 11.3634L9.7292 11.3703L10.464 10.692ZM13.344 12.996L12.8226 13.8493H12.8226L13.344 12.996ZM17.088 15.108L16.624 15.9938L16.6365 16.0004L16.6492 16.0066L17.088 15.108ZM20.88 17.46L21.4939 16.6706L20.88 17.46ZM23.76 20.628L22.9145 21.162L22.921 21.1722L23.76 20.628ZM21.648 32.484L22.2755 33.2626L22.2769 33.2615L21.648 32.484ZM9.024 34.884L8.89997 35.8763L8.90367 35.8767L9.024 34.884ZM6.096 34.356L5.86136 35.3281L6.096 34.356ZM3.6 33.636L3.25822 34.5759L3.27148 34.5805L3.6 33.636ZM2.016 32.82L1.01694 32.7766L0.995192 33.2769L1.38276 33.594L2.016 32.82ZM2.256 30.468L3.24439 30.6201L3.2452 30.6145L2.256 30.468ZM2.64 27.924L1.65672 27.7419L1.65394 27.7569L1.65163 27.7719L2.64 27.924ZM3.12 25.476L4.09898 25.68H4.09898L3.12 25.476ZM3.6 23.46V22.46H2.83991L2.63648 23.1924L3.6 23.46ZM5.568 23.46L6.53124 23.1913L6.32726 22.46H5.568V23.46ZM6.82889 31.2231C7.2822 31.6764 7.87898 32.0695 8.57679 32.4184L9.47121 30.6296C8.88903 30.3385 8.4938 30.0596 8.24311 29.8089L6.82889 31.2231ZM8.61364 32.4359C9.43097 32.8037 10.4354 32.956 11.568 32.956V30.956C10.5886 30.956 9.89703 30.8203 9.43437 30.6121L8.61364 32.4359ZM11.568 32.956C13.5031 32.956 15.1884 32.4603 16.5499 31.4014L15.3221 29.8226C14.3796 30.5557 13.1529 30.956 11.568 30.956V32.956ZM16.5529 31.3991C18.0014 30.2637 18.712 28.6813 18.712 26.772H16.712C16.712 28.1267 16.2386 29.1043 15.3191 29.8249L16.5529 31.3991ZM18.712 26.772C18.712 25.3491 18.2411 24.1031 17.2814 23.1035L15.8386 24.4885C16.4149 25.0889 16.712 25.8269 16.712 26.772H18.712ZM17.2959 23.1189C16.479 22.231 15.4513 21.4356 14.2319 20.7242L13.2241 22.4518C14.3087 23.0844 15.169 23.761 15.8241 24.4731L17.2959 23.1189ZM14.2319 20.7242C13.0566 20.0386 11.8026 19.3711 10.4704 18.7212L9.59358 20.5188C10.8854 21.1489 12.0954 21.7933 13.2241 22.4518L14.2319 20.7242ZM10.4879 18.73C9.23104 18.0862 8.05202 17.3358 6.94994 16.4786L5.72206 18.0574C6.92398 18.9922 8.20896 19.8098 9.57612 20.51L10.4879 18.73ZM6.94994 16.4786C5.88795 15.6527 5.00675 14.6827 4.30149 13.566L2.61051 14.634C3.44125 15.9493 4.48005 17.0913 5.72206 18.0574L6.94994 16.4786ZM4.31737 13.592C3.69282 12.533 3.352 11.183 3.352 9.492H1.352C1.352 11.449 1.74718 13.171 2.59463 14.608L4.31737 13.592ZM3.352 9.492C3.352 8.04599 3.61734 6.84539 4.11043 5.85921L2.32157 4.96479C1.66266 6.2826 1.352 7.80201 1.352 9.492H3.352ZM4.11043 5.85921C4.61931 4.84145 5.30337 4.02152 6.16385 3.3831L4.97215 1.7769C3.84863 2.61048 2.96469 3.67855 2.32157 4.96479L4.11043 5.85921ZM6.168 3.38C7.07589 2.69908 8.1532 2.1918 9.41583 1.8688L8.92017 -0.0688048C7.4308 0.312196 6.10811 0.924915 4.968 1.78L6.168 3.38ZM9.4368 1.86319C10.7155 1.50634 12.1121 1.324 13.632 1.324V-0.676001C11.9519 -0.676001 10.3725 -0.474343 8.8992 -0.0631988L9.4368 1.86319ZM13.632 1.324C15.5355 1.324 17.2857 1.46446 18.8855 1.74135L19.2265 -0.229351C17.4983 -0.528466 15.6325 -0.676001 13.632 -0.676001V1.324ZM18.9067 1.7448C20.5327 1.99022 21.9685 2.38587 23.2221 2.92314L24.0099 1.08485C22.5756 0.470122 20.9713 0.0337767 19.2053 -0.2328L18.9067 1.7448ZM22.6172 1.95406C22.5866 2.56707 22.5248 3.28077 22.4306 4.09737L24.4174 4.32662C24.5152 3.47923 24.5814 2.72092 24.6148 2.05393L22.6172 1.95406ZM22.4269 4.1353C22.3649 4.94186 22.2718 5.74872 22.1476 6.55594L24.1244 6.86005C24.2562 6.00327 24.3551 5.14614 24.4211 4.28869L22.4269 4.1353ZM22.1486 6.55001C22.0233 7.33312 21.8826 8.08291 21.7268 8.79957L23.6812 9.22443C23.8454 8.46909 23.9927 7.68287 24.1234 6.86599L22.1486 6.55001ZM21.7201 8.83311C21.595 9.52106 21.4725 10.0849 21.3538 10.5303L23.2862 11.0457C23.4235 10.5311 23.557 9.91094 23.6879 9.19088L21.7201 8.83311ZM22.32 9.788H20.352V11.788H22.32V9.788ZM21.3 10.4697L19.092 3.8937L17.196 4.5303L19.404 11.1063L21.3 10.4697ZM18.5912 3.31757C18.0911 3.06753 17.4151 2.87067 16.62 2.70502L16.212 4.66298C16.9529 4.81733 17.4289 4.97247 17.6968 5.10643L18.5912 3.31757ZM16.6284 2.70682C15.8185 2.53074 14.979 2.444 14.112 2.444V4.444C14.845 4.444 15.5415 4.51726 16.2036 4.66118L16.6284 2.70682ZM14.112 2.444C12.5847 2.444 11.2274 2.84771 10.0996 3.70331L11.3084 5.29669C12.0366 4.74429 12.9513 4.444 14.112 4.444V2.444ZM10.0996 3.70331C8.88185 4.62712 8.312 5.96982 8.312 7.572H10.312C10.312 6.48618 10.6701 5.78087 11.3084 5.29669L10.0996 3.70331ZM8.312 7.572C8.312 9.01902 8.77688 10.2992 9.71659 11.3564L11.2114 10.0276C10.6151 9.35681 10.312 8.55698 10.312 7.572H8.312ZM9.7292 11.3703C10.5706 12.2818 11.6063 13.106 12.8226 13.8493L13.8655 12.1427C12.7777 11.478 11.8934 10.7662 11.1988 10.0137L9.7292 11.3703ZM12.8226 13.8493C13.9955 14.5661 15.2628 15.2808 16.624 15.9938L17.552 14.2222C16.2252 13.5272 14.9965 12.8339 13.8655 12.1427L12.8226 13.8493ZM16.6492 16.0066C17.9662 16.6498 19.1711 17.3977 20.2661 18.2494L21.4939 16.6706C20.2849 15.7303 18.9618 14.9102 17.5268 14.2094L16.6492 16.0066ZM20.2661 18.2494C21.3281 19.0753 22.2093 20.0453 22.9145 21.162L24.6055 20.094C23.7747 18.7787 22.736 17.6367 21.4939 16.6706L20.2661 18.2494ZM22.921 21.1722C23.5607 22.1583 23.912 23.4294 23.912 25.044H25.912C25.912 23.1386 25.4953 21.4657 24.599 20.0838L22.921 21.1722ZM23.912 25.044C23.912 27.9908 22.925 30.165 21.0191 31.7065L22.2769 33.2615C24.723 31.283 25.912 28.4972 25.912 25.044H23.912ZM21.0205 31.7054C19.1262 33.2322 16.2214 34.076 12.144 34.076V36.076C16.4506 36.076 19.8818 35.1918 22.2755 33.2626L21.0205 31.7054ZM12.144 34.076C11.1617 34.076 10.1619 34.0146 9.14433 33.8913L8.90367 35.8767C9.99806 36.0094 11.0783 36.076 12.144 36.076V34.076ZM9.14804 33.8917C8.15829 33.768 7.21939 33.5984 6.33064 33.3839L5.86136 35.3281C6.82861 35.5616 7.84171 35.744 8.89997 35.8763L9.14804 33.8917ZM6.33064 33.3839C5.42761 33.1659 4.62776 32.9347 3.92852 32.6915L3.27148 34.5805C4.04424 34.8493 4.90839 35.0981 5.86136 35.3281L6.33064 33.3839ZM3.94174 32.6962C3.2843 32.4571 2.87593 32.2315 2.64924 32.046L1.38276 33.594C1.86007 33.9845 2.5077 34.3029 3.25826 34.5758L3.94174 32.6962ZM3.01506 32.8634C3.04527 32.1685 3.12114 31.421 3.24437 30.6201L1.26763 30.3159C1.13486 31.179 1.05073 31.9995 1.01694 32.7766L3.01506 32.8634ZM3.2452 30.6145C3.37294 29.7523 3.50066 28.9062 3.62837 28.0761L1.65163 27.7719C1.52334 28.6058 1.39506 29.4557 1.2668 30.3215L3.2452 30.6145ZM3.62328 28.1061C3.78209 27.2485 3.94066 26.4399 4.09898 25.68L2.14102 25.272C1.97934 26.0481 1.81791 26.8715 1.65672 27.7419L3.62328 28.1061ZM4.09898 25.68C4.25581 24.9272 4.41084 24.2773 4.56352 23.7276L2.63648 23.1924C2.46916 23.7947 2.30419 24.4888 2.14102 25.272L4.09898 25.68ZM3.6 24.46H5.568V22.46H3.6V24.46ZM4.60476 23.7287L6.57276 30.7847L8.49924 30.2473L6.53124 23.1913L4.60476 23.7287Z" fill="black" fill-opacity="0.04" mask="url(#path-3-outside-2_1_6154)"/>
</svg>
